<svg xmlns="http://www.w3.org/2000/svg" viewBox="0 0 220 120" role="img" aria-label="Pixel cloud corner decoration">
  <title>Pixel Cloud Corner Decoration</title>
  <rect width="220" height="120" fill="none"/>
  <g shape-rendering="crispEdges">
    <rect x="24" y="64" width="24" height="24" fill="#f6a6da"/>
    <rect x="48" y="40" width="32" height="24" fill="#f6a6da"/>
    <rect x="80" y="24" width="48" height="24" fill="#f6a6da"/>
    <rect x="128" y="40" width="32" height="24" fill="#f6a6da"/>
    <rect x="160" y="64" width="24" height="24" fill="#f6a6da"/>
    <rect x="24" y="88" width="160" height="24" fill="#f6a6da"/>

    <rect x="48" y="40" width="32" height="12" fill="#ffe0f3"/>
    <rect x="80" y="24" width="48" height="12" fill="#ffe0f3"/>
    <rect x="40" y="64" width="88" height="12" fill="#ffe0f3"/>

    <rect x="136" y="64" width="48" height="12" fill="#d47bc6"/>
    <rect x="96" y="88" width="88" height="12" fill="#d47bc6"/>
    <rect x="24" y="112" width="160" height="8" fill="#7b3f9e"/>

    <rect x="188" y="32" width="8" height="16" fill="#ff77c8"/>
    <rect x="184" y="36" width="16" height="8" fill="#ff77c8"/>
    <rect x="192" y="16" width="4" height="8" fill="#ffffff"/>
    <rect x="190" y="18" width="8" height="4" fill="#ffffff"/>
    <rect x="12" y="36" width="8" height="16" fill="#ffffff"/>
    <rect x="8" y="40" width="16" height="8" fill="#ffffff"/>
  </g>
</svg>