<svg xmlns="http://www.w3.org/2000/svg" viewBox="0 0 160 80" role="img" aria-label="Purple pixel cloud">
  <title>Purple Pixel Cloud</title>
  <rect width="160" height="80" fill="none"/>
  <g shape-rendering="crispEdges">
    <rect x="24" y="48" width="16" height="16" fill="#b7a1ff"/>
    <rect x="40" y="32" width="24" height="16" fill="#b7a1ff"/>
    <rect x="64" y="20" width="32" height="16" fill="#b7a1ff"/>
    <rect x="96" y="32" width="24" height="16" fill="#b7a1ff"/>
    <rect x="120" y="48" width="16" height="16" fill="#b7a1ff"/>
    <rect x="40" y="48" width="80" height="16" fill="#b7a1ff"/>
    <rect x="16" y="64" width="128" height="16" fill="#b7a1ff"/>

    <rect x="40" y="32" width="24" height="8" fill="#e8d8ff"/>
    <rect x="64" y="20" width="32" height="8" fill="#e8d8ff"/>
    <rect x="48" y="48" width="56" height="8" fill="#e8d8ff"/>
    <rect x="24" y="64" width="80" height="8" fill="#e8d8ff"/>

    <rect x="104" y="48" width="24" height="8" fill="#8e72e8"/>
    <rect x="80" y="64" width="64" height="8" fill="#8e72e8"/>
    <rect x="16" y="72" width="128" height="8" fill="#5c3f9e"/>

    <rect x="16" y="64" width="8" height="8" fill="#3d2a72"/>
    <rect x="144" y="72" width="8" height="8" fill="#3d2a72"/>
    <rect x="32" y="48" width="8" height="8" fill="#3d2a72"/>
    <rect x="120" y="48" width="8" height="8" fill="#3d2a72"/>
  </g>
</svg>