<svg xmlns="http://www.w3.org/2000/svg" viewBox="0 0 8 8" shape-rendering="crispEdges" role="img" aria-label="Pixel purple texture">
  <rect width="8" height="8" fill="#290A67"/>
  <!-- lighter #380F86 -->
  <rect x="1" y="0" width="1" height="1" fill="#380F86"/>
  <rect x="4" y="1" width="1" height="1" fill="#380F86"/>
  <rect x="7" y="2" width="1" height="1" fill="#380F86"/>
  <rect x="2" y="3" width="1" height="1" fill="#380F86"/>
  <rect x="5" y="4" width="1" height="1" fill="#380F86"/>
  <rect x="0" y="5" width="1" height="1" fill="#380F86"/>
  <rect x="3" y="6" width="1" height="1" fill="#380F86"/>
  <rect x="6" y="7" width="1" height="1" fill="#380F86"/>
  <!-- mid #310D78 -->
  <rect x="3" y="0" width="1" height="1" fill="#310D78"/>
  <rect x="6" y="1" width="1" height="1" fill="#310D78"/>
  <rect x="0" y="2" width="1" height="1" fill="#310D78"/>
  <rect x="5" y="3" width="1" height="1" fill="#310D78"/>
  <rect x="1" y="4" width="1" height="1" fill="#310D78"/>
  <rect x="7" y="5" width="1" height="1" fill="#310D78"/>
  <rect x="2" y="7" width="1" height="1" fill="#310D78"/>
  <rect x="6" y="4" width="1" height="1" fill="#310D78"/>
  <!-- darker #220851 -->
  <rect x="5" y="0" width="1" height="1" fill="#220851"/>
  <rect x="0" y="1" width="1" height="1" fill="#220851"/>
  <rect x="3" y="2" width="1" height="1" fill="#220851"/>
  <rect x="7" y="3" width="1" height="1" fill="#220851"/>
  <rect x="2" y="4" width="1" height="1" fill="#220851"/>
  <rect x="6" y="5" width="1" height="1" fill="#220851"/>
  <rect x="1" y="6" width="1" height="1" fill="#220851"/>
  <rect x="4" y="7" width="1" height="1" fill="#220851"/>
</svg>
