<svg xmlns="http://www.w3.org/2000/svg" viewBox="0 0 120 110" role="img" aria-label="Soft pink heart">
  <defs>
    <linearGradient id="heartPink" x1="0" y1="0" x2="1" y2="1">
      <stop offset="0%" stop-color="#ffd8ee"/>
      <stop offset="45%" stop-color="#ff69bf"/>
      <stop offset="100%" stop-color="#a448c9"/>
    </linearGradient>
    <filter id="heartShadow" x="-30%" y="-30%" width="160%" height="170%">
      <feDropShadow dx="0" dy="7" stdDeviation="4" flood-color="#5d2d82" flood-opacity="0.28"/>
    </filter>
  </defs>
  <path filter="url(#heartShadow)" d="M60 99S10 70 10 34C10 16 23 5 39 5c10 0 18 5 21 13C64 10 72 5 82 5c16 0 28 11 28 29 0 36-50 65-50 65z" fill="url(#heartPink)"/>
  <path d="M34 18c-9 2-15 9-16 19" fill="none" stroke="#fff3fa" stroke-width="7" stroke-linecap="round" opacity="0.8"/>
  <path d="M85 75c-8 8-17 14-25 19" fill="none" stroke="#7d3ca4" stroke-width="5" stroke-linecap="round" opacity="0.35"/>
</svg>