<svg xmlns="http://www.w3.org/2000/svg" viewBox="0 0 360 210" role="img" aria-label="Soft pastel corner clouds">
  <defs>
    <linearGradient id="cornerPink" x1="0" y1="0" x2="1" y2="1">
      <stop offset="0%" stop-color="#ffe4f4"/>
      <stop offset="45%" stop-color="#f9a8da"/>
      <stop offset="100%" stop-color="#b979d4"/>
    </linearGradient>
    <linearGradient id="cornerPurple" x1="0" y1="0" x2="1" y2="1">
      <stop offset="0%" stop-color="#f4eaff"/>
      <stop offset="55%" stop-color="#b8a4ff"/>
      <stop offset="100%" stop-color="#7c66dc"/>
    </linearGradient>
    <filter id="cornerShadow" x="-20%" y="-20%" width="140%" height="160%">
      <feDropShadow dx="0" dy="10" stdDeviation="6" flood-color="#4e2d7f" flood-opacity="0.22"/>
    </filter>
  </defs>
  <g filter="url(#cornerShadow)">
    <path d="M42 160c-23 0-42-17-42-39 0-21 17-38 38-38 7 0 13 2 18 4 13-32 44-54 81-54 31 0 59 17 74 43 9-5 20-8 32-8 35 0 64 29 64 64 0 5-.5 10-2 15 25 5 44 26 48 53H42z" fill="url(#cornerPink)"/>
    <path d="M62 118c18-28 49-45 85-45 26 0 50 10 68 27 12-8 26-12 42-12" fill="none" stroke="#fff4fb" stroke-width="10" stroke-linecap="round" opacity="0.8"/>
    <path d="M248 98c13-18 34-30 59-30 21 0 39 9 52 23" fill="none" stroke="#e9ddff" stroke-width="9" stroke-linecap="round" opacity="0.75"/>
    <path d="M56 176h245" fill="none" stroke="#8a54b8" stroke-width="10" stroke-linecap="round" opacity="0.35"/>
  </g>
</svg>