<svg xmlns="http://www.w3.org/2000/svg" viewBox="0 0 260 150" role="img" aria-label="Soft pink cloud">
  <defs>
    <linearGradient id="cloudPink" x1="0" y1="0" x2="1" y2="1">
      <stop offset="0%" stop-color="#ffe5f4"/>
      <stop offset="45%" stop-color="#f8a9d8"/>
      <stop offset="100%" stop-color="#c77bd3"/>
    </linearGradient>
    <filter id="softShadow" x="-20%" y="-20%" width="140%" height="150%">
      <feDropShadow dx="0" dy="8" stdDeviation="5" flood-color="#6b3a91" flood-opacity="0.25"/>
    </filter>
  </defs>
  <g filter="url(#softShadow)">
    <path d="M39 110c-19 0-34-14-34-32 0-17 14-31 31-31 4 0 8 1 12 2 8-24 30-41 57-41 24 0 45 14 55 34 5-2 11-3 17-3 25 0 45 20 45 45 0 2 0 4-.3 6 19 3 33 18 33 38H39z" fill="url(#cloudPink)"/>
    <path d="M46 77c10-17 28-27 49-27 16 0 30 6 41 16 9-6 20-9 32-8" fill="none" stroke="#fff4fb" stroke-width="8" stroke-linecap="round" opacity="0.85"/>
    <path d="M60 118h156" fill="none" stroke="#9a5ac5" stroke-width="8" stroke-linecap="round" opacity="0.45"/>
  </g>
</svg>