<svg xmlns="http://www.w3.org/2000/svg" viewBox="0 0 260 150" role="img" aria-label="Soft purple cloud">
  <defs>
    <linearGradient id="cloudPurple" x1="0" y1="0" x2="1" y2="1">
      <stop offset="0%" stop-color="#f2e7ff"/>
      <stop offset="50%" stop-color="#b8a5ff"/>
      <stop offset="100%" stop-color="#7f65d9"/>
    </linearGradient>
    <filter id="purpleShadow" x="-20%" y="-20%" width="140%" height="150%">
      <feDropShadow dx="0" dy="8" stdDeviation="5" flood-color="#3a2a73" flood-opacity="0.25"/>
    </filter>
  </defs>
  <g filter="url(#purpleShadow)">
    <path d="M41 112c-19 0-34-14-34-32 0-18 15-33 34-33 5 0 10 1 14 3 10-25 34-42 62-42 25 0 47 14 58 35 6-3 13-5 21-5 25 0 46 21 46 46 0 3-.3 6-.8 9 13 4 22 15 25 29H41z" fill="url(#cloudPurple)"/>
    <path d="M54 79c13-18 33-29 58-29 18 0 34 7 46 18 8-5 18-8 29-8" fill="none" stroke="#fff7ff" stroke-width="8" stroke-linecap="round" opacity="0.8"/>
    <path d="M60 121h162" fill="none" stroke="#5a3fa9" stroke-width="8" stroke-linecap="round" opacity="0.45"/>
  </g>
</svg>