<svg xmlns="http://www.w3.org/2000/svg" viewBox="0 0 32 32" shape-rendering="crispEdges" role="img" aria-label="chip se track">
  <title>Chip Se Track</title>
  
<rect x="8" y="8" width="16" height="16" fill="#4A1D5F"/><rect x="10" y="10" width="12" height="12" fill="#70F0C8"/><rect x="13" y="13" width="6" height="6" fill="#4A1D5F"/><rect x="14" y="14" width="4" height="4" fill="#7A45C8"/>
<rect x="4" y="11" width="4" height="2" fill="#4A1D5F"/><rect x="4" y="15" width="4" height="2" fill="#4A1D5F"/><rect x="4" y="19" width="4" height="2" fill="#4A1D5F"/><rect x="24" y="11" width="4" height="2" fill="#4A1D5F"/><rect x="24" y="15" width="4" height="2" fill="#4A1D5F"/><rect x="24" y="19" width="4" height="2" fill="#4A1D5F"/>
<rect x="11" y="4" width="2" height="4" fill="#4A1D5F"/><rect x="15" y="4" width="2" height="4" fill="#4A1D5F"/><rect x="19" y="4" width="2" height="4" fill="#4A1D5F"/><rect x="11" y="24" width="2" height="4" fill="#4A1D5F"/><rect x="15" y="24" width="2" height="4" fill="#4A1D5F"/><rect x="19" y="24" width="2" height="4" fill="#4A1D5F"/>

</svg>
