<svg xmlns="http://www.w3.org/2000/svg" viewBox="0 0 32 32" shape-rendering="crispEdges" role="img" aria-label="sparkle diamond">
  <title>Sparkle Diamond</title>
  
<rect x="14" y="2" width="4" height="4" fill="#FF4FA3"/><rect x="10" y="6" width="12" height="4" fill="#FF4FA3"/><rect x="6" y="10" width="20" height="4" fill="#FF4FA3"/><rect x="2" y="14" width="28" height="4" fill="#FF4FA3"/><rect x="6" y="18" width="20" height="4" fill="#FF4FA3"/><rect x="10" y="22" width="12" height="4" fill="#FF4FA3"/><rect x="14" y="26" width="4" height="4" fill="#FF4FA3"/>
<rect x="14" y="6" width="4" height="4" fill="#FFFFFF"/><rect x="10" y="10" width="12" height="4" fill="#FFFFFF"/><rect x="6" y="14" width="20" height="4" fill="#FFFFFF"/><rect x="10" y="18" width="12" height="4" fill="#FFFFFF"/><rect x="14" y="22" width="4" height="4" fill="#FFFFFF"/>
<rect x="14" y="10" width="4" height="4" fill="#FFD6EF"/><rect x="10" y="14" width="12" height="4" fill="#FFD6EF"/><rect x="14" y="18" width="4" height="4" fill="#FFD6EF"/>

</svg>
