<svg xmlns="http://www.w3.org/2000/svg" viewBox="0 0 160 120" shape-rendering="crispEdges">
  <defs>
    <linearGradient id="lSky" x1="0" y1="0" x2="0" y2="1">
      <stop offset="0" stop-color="#E8D4F8"/>
      <stop offset="1" stop-color="#C4A8E0"/>
    </linearGradient>
  </defs>
  <rect width="160" height="120" fill="url(#lSky)"/>
  <!-- circuit traces -->
  <g stroke="#FF7BB8" stroke-width="2" fill="none">
    <path d="M8 24 H40 V44"/><path d="M152 30 H120 V52"/>
    <path d="M8 96 H44 V72"/><path d="M152 92 H116 V70"/>
  </g>
  <g fill="#FF4499">
    <rect x="6" y="22" width="5" height="5"/><rect x="149" y="28" width="5" height="5"/>
    <rect x="6" y="94" width="5" height="5"/><rect x="149" y="90" width="5" height="5"/>
  </g>
  <!-- chip body -->
  <rect x="46" y="36" width="68" height="48" fill="#4A2060"/>
  <rect x="50" y="40" width="60" height="40" fill="#7B4FA0"/>
  <!-- pins -->
  <g fill="#FFD86B">
    <rect x="54" y="30" width="6" height="6"/><rect x="66" y="30" width="6" height="6"/>
    <rect x="78" y="30" width="6" height="6"/><rect x="90" y="30" width="6" height="6"/><rect x="100" y="30" width="6" height="6"/>
    <rect x="54" y="84" width="6" height="6"/><rect x="66" y="84" width="6" height="6"/>
    <rect x="78" y="84" width="6" height="6"/><rect x="90" y="84" width="6" height="6"/><rect x="100" y="84" width="6" height="6"/>
  </g>
  <!-- core label -->
  <rect x="62" y="52" width="36" height="16" fill="#FFB8D4"/>
  <rect x="68" y="57" width="24" height="6" fill="#4A2060"/>
</svg>
