<svg xmlns="http://www.w3.org/2000/svg" width="256" height="256" viewBox="0 0 256 256" fill="none">

  <defs>
    <style>
      .ol { stroke: #5B2D82; stroke-width: 8; stroke-linecap: round; stroke-linejoin: round; }
      .ot { fill: #5B2D82; font-family: Arial, Helvetica, sans-serif; font-weight: 700; }
      .small { font-size: 18px; }
      .med { font-size: 24px; }
      .big { font-size: 36px; }
    </style>
  </defs>


<rect class="ol" x="22" y="22" width="212" height="212" rx="34" fill="#EBD9FF"/>

<!-- shield -->
<path class="ol" fill="#B8F1E2" d="M128 48L190 70V116C190 158 161 191 128 206C95 191 66 158 66 116V70L128 48Z"/>

<!-- envelope -->
<rect class="ol" x="82" y="94" width="92" height="58" rx="12" fill="#FFF9FF"/>
<path class="ol" d="M88 102L128 130L168 102"/>
<path class="ol" d="M88 144L114 124M168 144L142 124"/>

<!-- hook warning -->
<path class="ol" d="M172 78c0-10 8-18 18-18s18 8 18 18c0 10-8 18-18 18"/>
<path class="ol" d="M190 96v18"/>
<circle class="ol" cx="190" cy="120" r="6" fill="#FF7FA8"/>

<!-- AI chip badge -->
<rect class="ol" x="52" y="166" width="54" height="38" rx="10" fill="#8FD5FF"/>
<rect class="ol" x="64" y="174" width="30" height="22" rx="5" fill="#FFF9FF"/>
<text x="79" y="191" text-anchor="middle" class="ot small">ML</text>
<path class="ol" d="M60 166v-10M74 166v-10M88 166v-10M60 204v10M74 204v10M88 204v10"/>

<!-- check badge -->
<circle class="ol" cx="180" cy="178" r="20" fill="#F5C04A"/>
<path class="ol" d="M170 178l7 7l14-16"/>

<text x="128" y="224" text-anchor="middle" class="ot med">SAFE MAIL</text>

</svg>