<svg xmlns="http://www.w3.org/2000/svg" width="256" height="256" viewBox="0 0 256 256" fill="none">

  <defs>
    <style>
      .ol { stroke: #5B2D82; stroke-width: 8; stroke-linecap: round; stroke-linejoin: round; }
      .ot { fill: #5B2D82; font-family: Arial, Helvetica, sans-serif; font-weight: 700; }
      .small { font-size: 18px; }
      .med { font-size: 24px; }
      .big { font-size: 36px; }
    </style>
  </defs>


<rect class="ol" x="22" y="22" width="212" height="212" rx="34" fill="#EBD9FF"/>
<rect class="ol" x="40" y="40" width="176" height="132" rx="18" fill="#FFF9FF"/>
<rect class="ol" x="40" y="40" width="176" height="28" rx="14" fill="#F78ACB"/>
<circle class="ol" cx="58" cy="54" r="6" fill="#FFF9FF"/>
<circle class="ol" cx="78" cy="54" r="6" fill="#FFF9FF"/>
<circle class="ol" cx="98" cy="54" r="6" fill="#FFF9FF"/>

<!-- code window -->
<text x="62" y="102" class="ot big">λ</text>
<text x="96" y="100" class="ot med">f x . x+1</text>
<path class="ol" d="M62 118H194"/>
<text x="58" y="145" class="ot med">parse()</text>
<text x="58" y="165" class="ot med">eval()</text>

<!-- interpreter flow / syntax tree -->
<circle class="ol" cx="62" cy="198" r="10" fill="#F5C04A"/>
<circle class="ol" cx="128" cy="198" r="10" fill="#B8F1E2"/>
<circle class="ol" cx="194" cy="198" r="10" fill="#8FD5FF"/>
<path class="ol" d="M72 198H118M138 198H184"/>
<path class="ol" d="M128 188V150"/>
<circle class="ol" cx="128" cy="136" r="10" fill="#A772F4"/>
<path class="ol" d="M128 146L90 188M128 146L166 188"/>

<text x="128" y="224" text-anchor="middle" class="ot med">RPAL</text>

</svg>